<mxfile host="65bd71144e">
    <diagram id="1lceU58KX0v-Xx3qzOF9" name="DFD数据流图">
        <mxGraphModel dx="725" dy="567" grid="0" gridSize="10" guides="1" tooltips="1" connect="1" arrows="1" fold="1" page="1" pageScale="1" pageWidth="827" pageHeight="1169" background="none" math="0" shadow="0">
            <root>
                <mxCell id="0"/>
                <mxCell id="1" parent="0"/>
                <mxCell id="nZ9KTj3yQZMCMOpYEYfy-9" style="edgeStyle=none;html=1;exitX=1;exitY=0.25;exitDx=0;exitDy=0;entryX=0;entryY=0;entryDx=0;entryDy=0;fontSize=18;" parent="1" source="2" target="3" edge="1">
                    <mxGeometry relative="1" as="geometry"/>
                </mxCell>
                <mxCell id="nZ9KTj3yQZMCMOpYEYfy-11" style="edgeStyle=none;html=1;exitX=1;exitY=0.75;exitDx=0;exitDy=0;entryX=0;entryY=1;entryDx=0;entryDy=0;fontSize=18;" parent="1" source="2" target="3" edge="1">
                    <mxGeometry relative="1" as="geometry"/>
                </mxCell>
                <mxCell id="2" value="&lt;font style=&quot;font-size: 18px&quot;&gt;管理员&lt;/font&gt;" style="rounded=0;whiteSpace=wrap;html=1;" parent="1" vertex="1">
                    <mxGeometry x="37" y="293" width="134" height="86" as="geometry"/>
                </mxCell>
                <mxCell id="nZ9KTj3yQZMCMOpYEYfy-15" style="edgeStyle=none;html=1;exitX=0;exitY=0.5;exitDx=0;exitDy=0;entryX=1;entryY=0.5;entryDx=0;entryDy=0;fontSize=18;" parent="1" source="3" target="2" edge="1">
                    <mxGeometry relative="1" as="geometry"/>
                </mxCell>
                <mxCell id="nZ9KTj3yQZMCMOpYEYfy-17" style="edgeStyle=none;html=1;exitX=0.5;exitY=0;exitDx=0;exitDy=0;entryX=0.5;entryY=1;entryDx=0;entryDy=0;fontSize=14;" parent="1" source="3" target="4" edge="1">
                    <mxGeometry relative="1" as="geometry"/>
                </mxCell>
                <mxCell id="nZ9KTj3yQZMCMOpYEYfy-21" style="edgeStyle=none;html=1;exitX=1;exitY=0.5;exitDx=0;exitDy=0;entryX=0;entryY=0.5;entryDx=0;entryDy=0;fontSize=14;" parent="1" source="3" target="5" edge="1">
                    <mxGeometry relative="1" as="geometry"/>
                </mxCell>
                <mxCell id="nZ9KTj3yQZMCMOpYEYfy-25" style="edgeStyle=none;html=1;exitX=1;exitY=1;exitDx=0;exitDy=0;entryX=0;entryY=0.75;entryDx=0;entryDy=0;fontSize=14;" parent="1" source="3" target="5" edge="1">
                    <mxGeometry relative="1" as="geometry"/>
                </mxCell>
                <mxCell id="3" value="&lt;font style=&quot;font-size: 18px&quot;&gt;苗医药数据库管理系统&lt;/font&gt;" style="ellipse;whiteSpace=wrap;html=1;aspect=fixed;" parent="1" vertex="1">
                    <mxGeometry x="327" y="249" width="174" height="174" as="geometry"/>
                </mxCell>
                <mxCell id="nZ9KTj3yQZMCMOpYEYfy-8" style="edgeStyle=none;html=1;exitX=0.5;exitY=1;exitDx=0;exitDy=0;entryX=0.5;entryY=0;entryDx=0;entryDy=0;fontSize=18;" parent="1" source="4" target="3" edge="1">
                    <mxGeometry relative="1" as="geometry"/>
                </mxCell>
                <mxCell id="4" value="&lt;font style=&quot;font-size: 18px&quot;&gt;苗医药数据库&lt;/font&gt;" style="shape=partialRectangle;whiteSpace=wrap;html=1;left=0;right=0;fillColor=none;fontSize=20;strokeWidth=2;" parent="1" vertex="1">
                    <mxGeometry x="343" y="85" width="142" height="77" as="geometry"/>
                </mxCell>
                <mxCell id="nZ9KTj3yQZMCMOpYEYfy-23" style="edgeStyle=none;html=1;exitX=0;exitY=0.25;exitDx=0;exitDy=0;entryX=1;entryY=0;entryDx=0;entryDy=0;fontSize=14;" parent="1" source="5" target="3" edge="1">
                    <mxGeometry relative="1" as="geometry"/>
                </mxCell>
                <mxCell id="5" value="&lt;span style=&quot;font-size: 18px&quot;&gt;医师等研究人员&lt;/span&gt;" style="rounded=0;whiteSpace=wrap;html=1;" parent="1" vertex="1">
                    <mxGeometry x="644" y="295" width="153" height="82" as="geometry"/>
                </mxCell>
                <mxCell id="nZ9KTj3yQZMCMOpYEYfy-12" value="&lt;font style=&quot;font-size: 14px&quot;&gt;录入相关信息&lt;/font&gt;" style="text;html=1;resizable=0;autosize=1;align=center;verticalAlign=middle;points=[];fillColor=none;strokeColor=none;rounded=0;fontSize=18;rotation=-15;" parent="1" vertex="1">
                    <mxGeometry x="223" y="258" width="94" height="28" as="geometry"/>
                </mxCell>
                <mxCell id="nZ9KTj3yQZMCMOpYEYfy-16" value="&lt;font style=&quot;font-size: 14px&quot;&gt;反馈错误信息&lt;/font&gt;" style="text;html=1;resizable=0;autosize=1;align=center;verticalAlign=middle;points=[];fillColor=none;strokeColor=none;rounded=0;fontSize=18;" parent="1" vertex="1">
                    <mxGeometry x="219" y="308" width="94" height="28" as="geometry"/>
                </mxCell>
                <mxCell id="nZ9KTj3yQZMCMOpYEYfy-18" value="更改权限或增删结构" style="text;html=1;resizable=0;autosize=1;align=center;verticalAlign=middle;points=[];fillColor=none;strokeColor=none;rounded=0;fontSize=14;rotation=15;" parent="1" vertex="1">
                    <mxGeometry x="207" y="384" width="136" height="21" as="geometry"/>
                </mxCell>
                <mxCell id="nZ9KTj3yQZMCMOpYEYfy-22" value="查阅苗药信息" style="text;html=1;resizable=0;autosize=1;align=center;verticalAlign=middle;points=[];fillColor=none;strokeColor=none;rounded=0;fontSize=14;" parent="1" vertex="1">
                    <mxGeometry x="518" y="311.5" width="94" height="21" as="geometry"/>
                </mxCell>
                <mxCell id="nZ9KTj3yQZMCMOpYEYfy-24" value="请求增删改相关信息" style="text;html=1;resizable=0;autosize=1;align=center;verticalAlign=middle;points=[];fillColor=none;strokeColor=none;rounded=0;fontSize=14;rotation=15;" parent="1" vertex="1">
                    <mxGeometry x="501" y="272" width="136" height="21" as="geometry"/>
                </mxCell>
                <mxCell id="nZ9KTj3yQZMCMOpYEYfy-26" value="反馈增删改请求结果" style="text;html=1;resizable=0;autosize=1;align=center;verticalAlign=middle;points=[];fillColor=none;strokeColor=none;rounded=0;fontSize=14;rotation=-15;" parent="1" vertex="1">
                    <mxGeometry x="497" y="374" width="136" height="21" as="geometry"/>
                </mxCell>
            </root>
        </mxGraphModel>
    </diagram>
</mxfile>